<svg xmlns="http://www.w3.org/2000/svg" viewBox="0 0 200 50" class="h-8 w-auto">
  <rect x="2" y="2" width="46" height="46" fill="#047857" rx="6"/>
  <g fill="white">
    <!-- Stylized "BSW" letters -->
    <path d="M8 12h8c2 0 3.5 1.2 3.5 2.8 0 1-.5 1.6-1.3 2 1 .4 1.6 1.1 1.6 2.3 0 1.8-1.5 3-3.5 3H8V12zm2.5 3v2h4c.8 0 1.3-.4 1.3-1s-.5-1-1.3-1h-4zm0 3.8v2h4.5c.9 0 1.5-.4 1.5-1s-.6-1-1.5-1h-4.5z"/>
    <path d="M22 18c0-1.8 1.5-3.2 3.5-3.2s3.5 1.4 3.5 3.2c0 1.3-1.5 2.3-3.5 4.5-2-2.2-3.5-3.2-3.5-4.5z"/>
    <path d="M32 12l4 10h-2.5l-.7-2h-3.6l-.7 2h-2.5l4-10h2zm-.3 6h2l-1-3L31.7 18z"/>
    <!-- Compass/navigation element -->
    <circle cx="25" cy="35" r="8" fill="none" stroke="white" stroke-width="1.5"/>
    <path d="M25 29l2 3.5L25 41l-2-3.5L25 29z" fill="white"/>
    <circle cx="25" cy="35" r="2" fill="white"/>
  </g>
  <text x="65" y="20" font-family="Inter, sans-serif" font-size="16" font-weight="700" fill="#047857">BSW</text>
  <text x="65" y="36" font-family="Inter, sans-serif" font-size="14" font-weight="500" fill="#6B7280">Navigator</text>
</svg>