<svg xmlns="http://www.w3.org/2000/svg" width="40" height="40" viewBox="0 0 40 40">
  <defs>
    <linearGradient id="grad1" x1="0%" y1="0%" x2="100%" y2="0%">
      <stop offset="0%" style="stop-color:#10B981;stop-opacity:1" />
      <stop offset="100%" style="stop-color:#059669;stop-opacity:1" />
    </linearGradient>
  </defs>
  <g>
    <path d="M20,0 C31.046,0 40,8.954 40,20 C40,31.046 31.046,40 20,40 C8.954,40 0,31.046 0,20 C0,8.954 8.954,0 20,0 Z M20,4 C11.178,4 4,11.178 4,20 C4,28.822 11.178,36 20,36 C28.822,36 36,28.822 36,20 C36,11.178 28.822,4 20,4 Z" fill="url(#grad1)"/>
    <polygon points="20,8 16,20 8,16 20,20" fill="#a7f3d0"/>
    <polygon points="20,8 24,20 32,16 20,20" fill="#10b981"/>
    <polygon points="20,32 16,20 8,24 20,20" fill="#a7f3d0"/>
    <polygon points="20,32 24,20 32,24 20,20" fill="#10b981"/>
    <path d="M20,10 l-2,10 h4 z" fill="white"/>
    <circle cx="20" cy="20" r="2.5" fill="white"/>
  </g>
</svg>