<svg xmlns="http://www.w3.org/2000/svg" viewBox="0 0 32 32">
  <rect width="32" height="32" fill="#047857" rx="4"/>
  <g fill="white">
    <!-- Stylized "BSW" letters -->
    <path d="M6 8h6c1.5 0 2.5 1 2.5 2.2 0 .8-.4 1.3-1 1.6.8.3 1.3.9 1.3 1.8 0 1.4-1.2 2.4-2.8 2.4H6V8zm2 2.5v1.5h3c.6 0 1-.3 1-.7s-.4-.8-1-.8H8zm0 3v1.5h3.5c.7 0 1.2-.3 1.2-.8s-.5-.7-1.2-.7H8z"/>
    <path d="M16 12.5c0-1.4 1.2-2.5 2.8-2.5s2.8 1.1 2.8 2.5c0 1-1.2 1.8-2.8 3.5-1.6-1.7-2.8-2.5-2.8-3.5z"/>
    <path d="M24 8l3 8h-2l-.5-1.5h-2.5L21.5 16h-2l3-8h1.5zm-.2 5h1.4l-.7-2.2L24.8 13z"/>
    <!-- Compass/navigation element -->
    <circle cx="16" cy="22" r="6" fill="none" stroke="white" stroke-width="1"/>
    <path d="M16 18l1.5 2.5L16 26l-1.5-2.5L16 18z" fill="white"/>
    <circle cx="16" cy="22" r="1.5" fill="white"/>
  </g>
</svg>